<?xml version="1.0" encoding="UTF-8"?>
<svg id="Composition" xmlns="http://www.w3.org/2000/svg" xmlns:xlink="http://www.w3.org/1999/xlink"
     viewBox="0 0 1125 2436">
    <defs>
        <linearGradient id="Dégradé_sans_nom_83" x1="562.5" y1="2203.97" x2="562.5" y2="53.89"
                        gradientUnits="userSpaceOnUse">
            <stop offset="0" stop-color="#29a0be"/>
            <stop offset=".26" stop-color="#2955be"/>
            <stop offset="1" stop-color="#2b1960"/>
        </linearGradient>
        <linearGradient  id="Dégradé_sans_nom_16" x1="562.75" y1="527.59" x2="562.75" y2="2226.15"
                        gradientUnits="userSpaceOnUse">
            <stop offset="0" stop-color="#2955be"/>
            <stop offset=".06" stop-color="#294cb1"/>
            <stop offset=".21" stop-color="#293a94"/>
            <stop offset=".37" stop-color="#2a2b7d"/>
            <stop offset=".55" stop-color="#2a216c"/>
            <stop offset=".74" stop-color="#2a1a63"/>
            <stop offset="1" stop-color="#2b1960"/>
        </linearGradient>
    </defs>
    <g class="trottoir" id="Trottoir">
        <rect y="2251" width="1125" height="139" style="fill:#170f38;"/>
        <rect y="2376" width="1125" height="14" style="fill:#281d68;"/>
        <rect y="2390" width="1125" height="46"/>
    </g>
    <rect id="Immeuble" x="71.5" y="493" width="982.5" height="1815.55" style="fill:url(#Dégradé_sans_nom_16);"/>
    <g id="Entree">
        <rect x="475.9" y="2074.29" width="176.37" height="157.66" style="fill:#0c0a23;"/>
        <rect x="459.87" y="2231.95" width="208.44" height="19.26" style="fill:#0c0a23;"/>
        <rect x="445.62" y="2251.21" width="236.05" height="19.26" style="fill:#0c0a23;"/>
        <rect x="428.69" y="2270.47" width="269.01" height="19.26" style="fill:#0c0a23;"/>
        <rect x="409.99" y="2289.74" width="305.53" height="19.26" style="fill:#0c0a23;"/>
    </g>
    <g class="fenetres" id="Fenetres">
        <rect class="lamp" x="779.65" y="1195.11" width="78.39" height="78.39"/>
        <rect class="lamp" x="907.03" y="1195.11" width="78.39" height="78.39"/>
        <rect class="lamp" x="652.27" y="1195.11" width="78.39" height="78.39"/>
        <rect class="lamp" x="907.03" y="1069.52" width="78.39" height="78.39"/>
        <rect class="lamp" x="652.27" y="1069.52" width="78.39" height="78.39"/>
        <rect class="lamp" x="907.03" y="943.92" width="78.39" height="78.39"/>
        <rect class="lamp" x="652.27" y="943.92" width="78.39" height="78.39"/>
        <rect class="lamp" x="907.03" y="818.33" width="78.39" height="78.39"/>
        <rect class="lamp" x="652.27" y="818.33" width="78.39" height="78.39"/>
        <rect class="lamp" x="779.65" y="692.73" width="78.39" height="78.39"/>
        <rect class="lamp" x="907.03" y="692.73" width="78.39" height="78.39"/>
        <rect class="lamp" x="652.27" y="692.73" width="78.39" height="78.39"/>
        <rect class="lamp" x="524.89" y="692.73" width="78.39" height="78.39"/>
        <rect class="lamp" x="524.89" y="818.33" width="78.39" height="78.39"/>
        <rect class="lamp" x="524.89" y="943.92" width="78.39" height="78.39"/>
        <rect class="lamp" x="779.65" y="818.33" width="78.39" height="78.39"/>
        <rect class="lamp" x="779.65" y="943.92" width="78.39" height="78.39"/>
        <rect class="lamp" x="524.89" y="1069.52" width="78.39" height="78.39"/>
        <rect class="lamp" x="524.89" y="1195.11" width="78.39" height="78.39"/>
        <rect class="lamp" x="524.89" y="1320.71" width="78.39" height="78.39"/>
        <rect class="lamp" x="524.89" y="1446.31" width="78.39" height="78.39"/>
        <rect class="lamp" x="524.89" y="1571.9" width="78.39" height="78.39"/>
        <rect class="lamp" x="524.89" y="1697.5" width="78.39" height="78.39"/>
        <rect class="lamp" x="524.89" y="1823.09" width="78.39" height="78.39"/>
        <rect class="lamp" x="524.89" y="1948.69" width="78.39" height="78.39"/>
        <rect class="lamp" x="779.65" y="1948.69" width="78.39" height="78.39"/>
        <rect class="lamp" x="907.03" y="1948.69" width="78.39" height="78.39"/>
        <rect class="lamp" x="652.27" y="1948.69" width="78.39" height="78.39"/>
        <rect class="lamp" x="907.03" y="1823.09" width="78.39" height="78.39"/>
        <rect class="lamp" x="779.65" y="1697.5" width="78.39" height="78.39"/>
        <rect class="lamp" x="907.03" y="1697.5" width="78.39" height="78.39"/>
        <rect class="lamp" x="652.27" y="1697.5" width="78.39" height="78.39"/>
        <rect class="lamp" x="907.03" y="1571.9" width="78.39" height="78.39"/>
        <rect class="lamp" x="779.65" y="1446.31" width="78.39" height="78.39"/>
        <rect class="lamp" x="907.03" y="1446.31" width="78.39" height="78.39"/>
        <rect class="lamp" x="652.27" y="1446.31" width="78.39" height="78.39"/>
        <rect class="lamp" x="142.76" y="1948.69" width="78.39" height="78.39"/>
        <rect class="lamp" x="397.52" y="1948.69" width="78.39" height="78.39"/>
        <rect class="lamp" x="270.14" y="1948.69" width="78.39" height="78.39"/>
        <rect class="lamp" x="779.65" y="2074.29" width="78.39" height="78.39"/>
        <rect class="lamp" x="907.03" y="2074.29" width="78.39" height="78.39"/>
        <rect class="lamp" x="142.76" y="2074.29" width="78.39" height="78.39"/>
        <rect class="lamp" x="270.14" y="2074.29" width="78.39" height="78.39"/>
        <rect class="lamp" x="142.76" y="1823.09" width="78.39" height="78.39"/>
        <rect class="lamp" x="142.76" y="1697.5" width="78.39" height="78.39"/>
        <rect class="lamp" x="397.52" y="1697.5" width="78.39" height="78.39"/>
        <rect class="lamp" x="270.14" y="1697.5" width="78.39" height="78.39"/>
        <rect class="lamp" x="397.52" y="1571.9" width="78.39" height="78.39"/>
        <rect class="lamp" x="142.76" y="1446.31" width="78.39" height="78.39"/>
        <rect class="lamp" x="397.52" y="1446.31" width="78.39" height="78.39"/>
        <rect class="lamp" x="270.14" y="1446.31" width="78.39" height="78.39"/>
        <rect class="lamp" x="779.65" y="1320.71" width="78.39" height="78.39"/>
        <rect class="lamp" x="907.03" y="1320.71" width="78.39" height="78.39"/>
        <rect class="lamp" x="652.27" y="1320.71" width="78.39" height="78.39"/>
        <rect class="lamp" x="779.65" y="1571.9" width="78.39" height="78.39"/>
        <rect class="lamp" x="652.27" y="1571.9" width="78.39" height="78.39"/>
        <rect class="lamp" x="142.76" y="1320.71" width="78.39" height="78.39"/>
        <rect class="lamp" x="397.52" y="1320.71" width="78.39" height="78.39"/>
        <rect class="lamp" x="270.14" y="1320.71" width="78.39" height="78.39"/>
        <rect class="lamp" x="779.65" y="1069.52" width="78.39" height="78.39"/>
        <rect class="lamp" x="397.52" y="1069.52" width="78.39" height="78.39"/>
        <rect class="lamp" x="270.14" y="1069.52" width="78.39" height="78.39"/>
        <rect class="lamp" x="779.65" y="1823.09" width="78.39" height="78.39"/>
        <rect class="lamp" x="652.27" y="1823.09" width="78.39" height="78.39"/>
        <rect class="lamp" x="397.52" y="1823.09" width="78.39" height="78.39"/>
        <rect class="lamp" x="270.14" y="1823.09" width="78.39" height="78.39"/>
        <rect class="lamp" x="142.76" y="1571.9" width="78.39" height="78.39"/>
        <rect class="lamp" x="270.14" y="1571.9" width="78.39" height="78.39"/>
        <rect class="lamp" x="142.76" y="1195.11" width="78.39" height="78.39"/>
        <rect class="lamp" x="397.52" y="1195.11" width="78.39" height="78.39"/>
        <rect class="lamp" x="270.14" y="1195.11" width="78.39" height="78.39"/>
        <rect class="lamp" x="142.76" y="1069.52" width="78.39" height="78.39"/>
        <rect class="lamp" x="142.76" y="943.92" width="78.39" height="78.39"/>
        <rect class="lamp" x="397.52" y="943.92" width="78.39" height="78.39"/>
        <rect class="lamp" x="270.14" y="943.92" width="78.39" height="78.39"/>
        <rect class="lamp" x="142.76" y="818.33" width="78.39" height="78.39"/>
        <rect class="lamp" x="270.14" y="818.33" width="78.39" height="78.39"/>
        <rect class="lamp" x="397.52" y="818.33" width="78.39" height="78.39"/>
        <rect class="lamp" x="142.76" y="692.73" width="78.39" height="78.39"/>
        <rect class="lamp" x="397.52" y="692.73" width="78.39" height="78.39"/>
        <rect class="lamp" x="270.14" y="692.73" width="78.39" height="78.39"/>
        <rect class="lamp" x="779.65" y="566.73" width="78.39" height="78.39"/>
        <rect class="lamp" x="907.03" y="566.73" width="78.39" height="78.39"/>
        <rect class="lamp" x="652.27" y="566.73" width="78.39" height="78.39"/>
        <rect class="lamp" x="524.89" y="566.73" width="78.39" height="78.39"/>
        <rect class="lamp" x="142.76" y="566.73" width="78.39" height="78.39"/>
        <rect class="lamp" x="397.52" y="566.73" width="78.39" height="78.39"/>
        <rect class="lamp" x="270.14" y="566.73" width="78.39" height="78.39"/>
    </g>
    <g id="Etoiles">
        <path d="M274.91,295.99c-61.25,0-110.9-49.65-110.9-110.9,0-18.25,4.41-35.48,12.22-50.66-35.77,18.4-60.24,55.68-60.24,98.68,0,61.25,49.65,110.9,110.9,110.9,42.99,0,80.27-24.47,98.68-60.24-15.19,7.81-32.41,12.22-50.66,12.22Z"
              style="fill:#fcfcd9;"/>
        <circle cx="397.5" cy="95.5" r="9.5" style="fill:#fcfcd9;"/>
        <circle cx="779.5" cy="344.5" r="9.5" style="fill:#fcfcd9;"/>
        <circle cx="975.5" cy="95.5" r="9.5" style="fill:#fcfcd9;"/>
        <circle cx="966" cy="225" r="4" style="fill:#fcfcd9;"/>
        <circle cx="528.06" cy="308.57" r="4" style="fill:#fcfcd9;"/>
        <circle cx="613.09" cy="147.72" r="4" style="fill:#fcfcd9;"/>
        <circle cx="72" cy="82" r="4" style="fill:#fcfcd9;"/>
        <circle cx="819" cy="59" r="4" style="fill:#fcfcd9;"/>
        <circle cx="712.66" cy="234.28" r="4" style="fill:#fcfcd9;"/>
        <circle cx="508" cy="51" r="4" style="fill:#fcfcd9;"/>
    </g>
</svg>